<?xml version="1.0" encoding="iso-8859-1"?>
<!-- Generator: Adobe Illustrator 17.1.0, SVG Export Plug-In . SVG Version: 6.00 Build 0)  -->
<!DOCTYPE svg PUBLIC "-//W3C//DTD SVG 1.1//EN" "http://www.w3.org/Graphics/SVG/1.1/DTD/svg11.dtd">
<svg version="1.1" id="Capa_1" xmlns="http://www.w3.org/2000/svg" xmlns:xlink="http://www.w3.org/1999/xlink" x="0px" y="0px"
	 viewBox="0 0 316.896 316.896" style="enable-background:new 0 0 316.896 316.896;" xml:space="preserve">
<g>
	<path style="fill:#222220;" d="M158.448,219.956c-4.142,0-7.5,3.357-7.5,7.5v0.5c0,4.143,3.358,7.5,7.5,7.5s7.5-3.357,7.5-7.5v-0.5
		C165.948,223.313,162.59,219.956,158.448,219.956z"/>
	<path style="fill:#222220;" d="M165.948,120.956c0-4.143-3.358-7.5-7.5-7.5s-7.5,3.357-7.5,7.5v0.5c0,4.143,3.358,7.5,7.5,7.5
		s7.5-3.357,7.5-7.5V120.956z"/>
	<path style="fill:#222220;" d="M165.948,156.456c0-4.143-3.358-7.5-7.5-7.5s-7.5,3.357-7.5,7.5v0.5c0,4.143,3.358,7.5,7.5,7.5
		s7.5-3.357,7.5-7.5V156.456z"/>
	<path style="fill:#222220;" d="M165.948,191.956c0-4.143-3.358-7.5-7.5-7.5s-7.5,3.357-7.5,7.5v0.5c0,4.143,3.358,7.5,7.5,7.5
		s7.5-3.357,7.5-7.5V191.956z"/>
	<path style="fill:#222220;" d="M165.948,85.456c0-4.143-3.358-7.5-7.5-7.5s-7.5,3.357-7.5,7.5v0.5c0,4.143,3.358,7.5,7.5,7.5
		s7.5-3.357,7.5-7.5V85.456z"/>
	<path style="fill:#222220;" d="M313,96.759c-2.403-1.315-5.332-1.216-7.641,0.258l-85.139,54.4
		c-2.157,1.378-3.462,3.761-3.462,6.32s1.305,4.942,3.462,6.32l85.139,54.4c1.228,0.784,2.631,1.18,4.039,1.18
		c1.237,0,2.478-0.306,3.603-0.922c2.403-1.316,3.897-3.838,3.897-6.578V103.337C316.896,100.597,315.402,98.075,313,96.759z
		 M301.896,198.445l-63.71-40.708l63.71-40.708V198.445z"/>
	<path style="fill:#222220;" d="M100.139,157.737c0-2.56-1.305-4.942-3.462-6.32l-85.139-54.4c-2.308-1.474-5.237-1.575-7.641-0.258
		C1.494,98.075,0,100.597,0,103.337v108.801c0,2.74,1.494,5.262,3.897,6.578c1.125,0.616,2.365,0.922,3.603,0.922
		c1.407,0,2.811-0.396,4.039-1.18l85.139-54.4C98.834,162.68,100.139,160.297,100.139,157.737z M15,198.445v-81.416l63.71,40.708
		L15,198.445z"/>
	<path style="fill:#222220;" d="M72.476,72.476c22.964-22.965,53.497-35.611,85.973-35.611c29.608,0,57.597,10.516,79.712,29.774
		h-16.105c-4.142,0-7.5,3.357-7.5,7.5s3.358,7.5,7.5,7.5h31.658c4.142,0,7.5-3.357,7.5-7.5V42.481c0-4.143-3.358-7.5-7.5-7.5
		s-7.5,3.357-7.5,7.5v11.311c-24.557-20.664-55.293-31.928-87.765-31.928c-36.483,0-70.782,14.207-96.579,40.004
		c-2.929,2.93-2.929,7.678,0,10.607C64.798,75.403,69.547,75.403,72.476,72.476z"/>
	<path style="fill:#222220;" d="M248.41,244.421c-22.964,22.965-53.497,35.611-85.973,35.611c-29.608,0-57.597-10.516-79.712-29.774
		H98.83c4.142,0,7.5-3.357,7.5-7.5s-3.358-7.5-7.5-7.5H67.172c-4.142,0-7.5,3.357-7.5,7.5v31.657c0,4.143,3.358,7.5,7.5,7.5
		s7.5-3.357,7.5-7.5v-11.311c24.557,20.664,55.293,31.928,87.765,31.928c36.483,0,70.782-14.207,96.579-40.004
		c2.929-2.93,2.929-7.678,0-10.607C256.088,241.493,251.339,241.493,248.41,244.421z"/>
</g>
<g>
</g>
<g>
</g>
<g>
</g>
<g>
</g>
<g>
</g>
<g>
</g>
<g>
</g>
<g>
</g>
<g>
</g>
<g>
</g>
<g>
</g>
<g>
</g>
<g>
</g>
<g>
</g>
<g>
</g>
</svg>
