<?xml version="1.0" encoding="iso-8859-1"?>
<!-- Generator: Adobe Illustrator 17.1.0, SVG Export Plug-In . SVG Version: 6.00 Build 0)  -->
<!DOCTYPE svg PUBLIC "-//W3C//DTD SVG 1.1//EN" "http://www.w3.org/Graphics/SVG/1.1/DTD/svg11.dtd">
<svg version="1.1" id="Capa_1" xmlns="http://www.w3.org/2000/svg" xmlns:xlink="http://www.w3.org/1999/xlink" x="0px" y="0px"
	 viewBox="0 0 281.662 281.662" style="enable-background:new 0 0 281.662 281.662;" xml:space="preserve">
<g>
	<path style="fill:#222220;" d="M140.831,0C63.177,0,0,63.177,0,140.831s63.177,140.831,140.831,140.831
		s140.831-63.177,140.831-140.831S218.485,0,140.831,0z M140.831,266.662C71.447,266.662,15,210.215,15,140.831
		S71.447,15,140.831,15s125.831,56.447,125.831,125.831S210.215,266.662,140.831,266.662z"/>
	<path style="fill:#222220;" d="M177.234,203.776h-28.903v-95.59c0-4.143-3.357-7.5-7.5-7.5h-32.185c-4.143,0-7.5,3.357-7.5,7.5
		s3.357,7.5,7.5,7.5h24.685v88.09h-28.903c-4.143,0-7.5,3.357-7.5,7.5s3.357,7.5,7.5,7.5h72.807c4.143,0,7.5-3.357,7.5-7.5
		S181.377,203.776,177.234,203.776z"/>
	<path style="fill:#222220;" d="M140.831,77.891c1.97,0,3.899-0.81,5.3-2.2c1.4-1.399,2.2-3.329,2.2-5.31c0-1.97-0.8-3.9-2.2-5.3
		c-1.4-1.4-3.33-2.2-5.3-2.2c-1.971,0-3.91,0.8-5.3,2.2c-1.4,1.399-2.2,3.33-2.2,5.3s0.8,3.91,2.2,5.31
		C136.921,77.081,138.86,77.891,140.831,77.891z"/>
</g>
<g>
</g>
<g>
</g>
<g>
</g>
<g>
</g>
<g>
</g>
<g>
</g>
<g>
</g>
<g>
</g>
<g>
</g>
<g>
</g>
<g>
</g>
<g>
</g>
<g>
</g>
<g>
</g>
<g>
</g>
</svg>
