<?xml version="1.0" encoding="iso-8859-1"?>
<!-- Generator: Adobe Illustrator 16.0.0, SVG Export Plug-In . SVG Version: 6.00 Build 0)  -->
<!DOCTYPE svg PUBLIC "-//W3C//DTD SVG 1.1//EN" "http://www.w3.org/Graphics/SVG/1.1/DTD/svg11.dtd">
<svg version="1.1" id="Capa_1" xmlns="http://www.w3.org/2000/svg" xmlns:xlink="http://www.w3.org/1999/xlink" x="0px" y="0px"
	 width="401.467px" height="401.467px" viewBox="0 0 401.467 401.467" style="enable-background:new 0 0 401.467 401.467;"
	 xml:space="preserve">
<g>
	<g>
		<path d="M172.981,244.429c-1.245-6.229-6.038-7.508-8.904-8.272c-2.142-0.571-3.303-0.927-4.189-2.217l-0.177-0.236
			c-0.507-0.69-1.259-3.822-1.259-8.346c0-2.415-1.957-4.372-4.372-4.372s-4.372,1.957-4.372,4.372
			c0,4.427,0.535,10.365,3.063,13.667c2.756,3.899,6.54,4.909,9.053,5.577c2.402,0.643,2.409,0.676,2.584,1.541
			c0.182,0.907,0.037,2.057-0.129,3.387c-0.383,3.041-0.96,7.636,3.226,11.813c2.023,1.867,4.124,2.81,6.265,2.81
			c0.367,0,0.736-0.029,1.105-0.085c4.21-0.633,6.443-4.479,8.412-7.869c0.703-1.208,1.43-2.458,2.107-3.308l0.184-0.247
			c1.452-2.097,3.669-3.904,6.014-5.817c3.343-2.726,6.798-5.539,8.862-9.671c2.633-4.937,3.168-9.736,1.587-14.271
			c-2.953-8.479-12.524-13.562-20.531-17.043l-0.175-0.072c-8.122-3.123-21.497-13.473-20.442-16.715
			c1.971-6.065,5.233-6.001,11.847-5.307c4.217,0.442,8.993,0.944,12.385-2.362c3.228-3.149,3.249-7.959,2.985-11.429
			c0.213-0.584,2.366-1.749,3.396-2.308c2.999-1.624,7.996-4.333,7.223-10.061c-0.495-5.377-5.666-6.816-8.459-7.591
			c-1.018-0.281-2.723-0.757-3.046-1.063c-0.334-0.684-0.444-1.119-0.479-1.348c1.235-0.699,5.753-0.86,10.315,0.967
			c6.303,2.518,7.889,10.581,9.287,17.692c0.75,3.805,1.396,7.09,2.812,9.484c3.698,6.243,10.86,2.312,14.302,0.423
			c0.902-0.495,2.294-1.261,3.142-1.588c1.172,0.885,1.175,1.834,0.84,4.952c-0.258,2.375-0.574,5.322,0.566,8.327
			c1.164,3.723,3.548,6.455,6.727,7.711c2.593,1.021,6.899,1.531,12.694-1.851c2.085-1.217,2.791-3.896,1.572-5.978
			c-1.217-2.086-3.893-2.793-5.979-1.572c-2.095,1.221-3.993,1.696-5.079,1.266c-0.878-0.344-1.362-1.421-1.616-2.266l-0.128-0.369
			c-0.419-1.048-0.255-2.568-0.064-4.331c0.4-3.712,1.07-9.923-5.901-13.94c-3.599-2.074-7.519,0.075-10.978,1.971
			c-0.86,0.474-2.121,1.165-3.072,1.572c-0.454-1.427-0.874-3.56-1.257-5.501c-1.555-7.9-3.901-19.839-14.614-24.125
			c-6.648-2.656-15.788-3.378-20.146,1.322c-1.512,1.631-3.628,5.231-0.793,11.023c1.85,3.782,5.725,4.859,8.561,5.646
			c0.415,0.115,0.932,0.259,1.397,0.407c-0.605,0.385-1.387,0.808-1.985,1.131c-3.16,1.712-8.442,4.573-7.949,10.813
			c0.274,3.478-0.36,4.334-0.357,4.334c-0.659,0.441-3.616,0.129-5.382-0.056c-6.293-0.661-16.83-1.766-21.079,11.301
			c-4.128,12.714,21.18,25.816,25.522,27.538c5.867,2.555,13.838,6.558,15.688,11.869c0.755,2.163,0.411,4.545-1.102,7.381
			c-1.274,2.555-3.87,4.669-6.615,6.907c-2.681,2.186-5.45,4.444-7.596,7.498c-1.042,1.327-1.909,2.814-2.747,4.259
			c-0.572,0.986-1.45,2.499-2.102,3.291c-0.024-0.018-0.044-0.036-0.066-0.06c-0.934-0.934-0.951-1.673-0.607-4.42
			C173.183,248.795,173.443,246.727,172.981,244.429z"/>
		<path d="M140.278,145.92c-1.86-1.537-4.618-1.276-6.157,0.586c-12.628,15.292-19.586,34.655-19.586,54.528
			c0,47.244,38.436,85.68,85.68,85.68s85.679-38.436,85.679-85.68c0-47.247-38.435-85.682-85.679-85.682
			c-2.415,0-4.372,1.957-4.372,4.372c0,2.415,1.957,4.371,4.372,4.371c42.423,0,76.937,34.514,76.937,76.939
			c0,42.424-34.514,76.937-76.937,76.937c-42.426,0-76.937-34.513-76.937-76.937c0-17.843,6.244-35.229,17.587-48.958
			C142.402,150.213,142.137,147.457,140.278,145.92z"/>
		<path d="M367.202,252.299c-2.322-0.631-4.732,0.734-5.368,3.063c-19.663,71.907-84.152,120.218-160.472,120.218
			c-73.793,0-144.066-56.797-163.461-132.118c-0.138-0.54-1.168-4.968-4.973-4.968H10.704l37.76-50.347l39.016,50.347H63.888
			c-2.417,0-4.372,1.959-4.372,4.371c0,2.415,1.955,4.372,4.372,4.372h26.956c3.188,0,5.683-1.362,6.848-3.738
			c1.165-2.377,0.708-5.185-1.242-7.701l-41.188-53.147c-1.721-2.221-4.198-3.489-6.807-3.489c-0.023,0-0.042,0.002-0.064,0.002
			c-2.634,0.021-5.118,1.333-6.818,3.598L1.792,235.8c-1.899,2.541-2.312,5.353-1.129,7.716c1.186,2.364,3.681,3.722,6.856,3.722
			H29.88c9.894,36.979,31.894,71.099,62.136,96.219c31.724,26.353,70.558,40.865,109.347,40.865
			c39.383,0,76.437-12.287,107.148-35.536c30.391-23.004,51.747-54.514,61.755-91.118
			C370.901,255.338,369.531,252.934,367.202,252.299z"/>
		<path d="M400.804,157.95c-1.184-2.368-3.681-3.723-6.855-3.723h-22.361c-9.894-36.979-31.894-71.099-62.136-96.217
			c-31.722-26.354-70.556-40.866-109.346-40.866c-39.383,0-76.437,12.287-107.15,35.536c-30.389,23.004-51.744,54.513-61.752,91.118
			c-0.637,2.329,0.734,4.733,3.063,5.37c2.325,0.635,4.731-0.734,5.368-3.063c19.661-71.907,84.15-120.218,160.472-120.218
			c73.792,0,144.068,56.797,163.461,132.117c0.14,0.542,1.259,4.968,4.973,4.968h22.225l-37.761,50.347l-39.016-50.347h23.59
			c2.415,0,4.372-1.957,4.372-4.372c0-2.415-1.957-4.371-4.372-4.371h-26.956c-3.188,0-5.683,1.362-6.847,3.74
			c-1.165,2.375-0.71,5.184,1.241,7.699l41.188,53.149c1.721,2.219,4.198,3.488,6.808,3.488c0.021,0,0.041-0.001,0.064-0.001
			c2.633-0.023,5.118-1.335,6.815-3.601l39.78-53.038C401.573,163.126,401.986,160.312,400.804,157.95z"/>
	</g>
</g>
<g>
</g>
<g>
</g>
<g>
</g>
<g>
</g>
<g>
</g>
<g>
</g>
<g>
</g>
<g>
</g>
<g>
</g>
<g>
</g>
<g>
</g>
<g>
</g>
<g>
</g>
<g>
</g>
<g>
</g>
</svg>
